<?xml version="1.0" encoding="utf-8"?>
<!-- Generator: Adobe Illustrator 25.0.1, SVG Export Plug-In . SVG Version: 6.00 Build 0)  -->
<svg version="1.1" id="Warstwa_1" xmlns="http://www.w3.org/2000/svg" xmlns:xlink="http://www.w3.org/1999/xlink" x="0px" y="0px"
	 viewBox="0 0 707.1 200" style="enable-background:new 0 0 707.1 200;" xml:space="preserve">
<style type="text/css">
	.st0{fill:#333333;}
	.st1{fill:#ED1C24;}
	.st2{opacity:0.5;}
	.st3{fill:#FFFFFF;}
</style>
<g>
	<polygon class="st0" points="39.5,54.9 117.6,100 117.6,9.8 	"/>
	<path class="st0" d="M118.1,100.8L38.6,54.9L118.1,9V100.8z M40.4,54.9l76.8,44.3V10.6L40.4,54.9z"/>
</g>
<g>
	<polygon class="st0" points="39.5,145.1 117.6,190.2 117.6,100 	"/>
	<path class="st0" d="M118.1,191l-0.7-0.4l-78.8-45.5l79.5-45.9V191z M40.4,145.1l76.8,44.3v-88.7L40.4,145.1z"/>
</g>
<g>
	<polygon class="st1" points="39,145.9 39,55.7 117.1,10.6 195.3,55.7 195.3,145.9 117.1,191 	"/>
</g>
<g class="st2">
	<polygon class="st0" points="195.7,145.1 117.6,100 117.6,190.2 	"/>
	<path class="st0" d="M117.1,191V99.2l79.5,45.9L117.1,191z M118.1,100.8v88.7l76.8-44.3L118.1,100.8z"/>
</g>
<g class="st2">
	<polygon class="st0" points="195.7,54.9 117.6,9.8 117.6,100 	"/>
	<path class="st0" d="M117.1,100.8V9l79.5,45.9L117.1,100.8z M118.1,10.6v88.7l76.8-44.3L118.1,10.6z"/>
</g>
<g class="st2">
	<polygon class="st0" points="117.6,100 39.5,54.9 39.5,145.1 	"/>
</g>
<g>
	<polygon class="st3" points="117.6,130 91.5,115.1 91.5,84.9 117.6,70 143.7,84.9 169.7,70 117.6,39.8 65.5,70 65.5,130 
		117.6,160.2 169.7,130 143.7,115.1 	"/>
</g>
<g>
	<path class="st0" d="M349.7,162.4c-10,4.9-23.1,7.3-39.3,7.3c-21.1,0-37.7-6.2-49.8-18.6c-12.1-12.4-18.1-28.9-18.1-49.6
		c0-22,6.8-39.8,20.4-53.5c13.6-13.7,31.2-20.5,52.9-20.5c13.4,0,24.7,1.7,33.9,5.1v29.8c-9.2-5.5-19.7-8.2-31.4-8.2
		c-12.9,0-23.3,4.1-31.3,12.2c-7.9,8.1-11.9,19.1-11.9,33c0,13.3,3.7,23.9,11.2,31.8c7.5,7.9,17.5,11.8,30.2,11.8
		c12.1,0,23.1-2.9,33.2-8.8V162.4z"/>
	<path class="st0" d="M489,167.2h-35.6L432,131.9c-1.6-2.7-3.1-5.1-4.6-7.2c-1.5-2.1-3-3.9-4.5-5.4c-1.5-1.5-3.1-2.7-4.7-3.5
		c-1.6-0.8-3.4-1.2-5.3-1.2h-8.3v52.6h-31V29.8h49.1c33.4,0,50,12.5,50,37.4c0,4.8-0.7,9.2-2.2,13.3c-1.5,4.1-3.5,7.7-6.2,11
		c-2.7,3.3-5.9,6.1-9.7,8.4c-3.8,2.4-8,4.2-12.7,5.6v0.4c2,0.6,4,1.7,5.9,3.1c1.9,1.4,3.8,3.1,5.6,5c1.8,1.9,3.5,4,5.1,6.2
		s3.1,4.4,4.5,6.5L489,167.2z M404.6,53v38.3H418c6.6,0,12-1.9,16-5.8c4.1-3.9,6.1-8.7,6.1-14.5c0-12-7.2-18-21.6-18H404.6z"/>
	<path class="st0" d="M658.5,167.2h-30.6V85c0-8.9,0.4-18.7,1.2-29.4h-0.8c-1.6,8.4-3,14.5-4.3,18.2l-32.2,93.5h-25.3l-32.8-92.5
		c-0.9-2.5-2.3-8.9-4.3-19.2h-0.9c0.8,13.6,1.2,25.4,1.2,35.7v76h-27.9V29.8h45.3l28.1,81.5c2.2,6.5,3.9,13.1,4.9,19.7h0.6
		c1.7-7.6,3.5-14.2,5.5-19.8l28.1-81.3h44.2V167.2z"/>
</g>
</svg>
